<svg xmlns="http://www.w3.org/2000/svg" width="980" height="560" viewBox="0 0 980 560">
<rect width="100%" height="100%" fill="#fbfaf5"/>
<style>
text { font-family: Georgia, "Times New Roman", serif; fill: #1f1f1f; }
.title { font-size: 26px; font-weight: 700; }
.subtitle { font-size: 14px; fill: #4f4a40; }
.axis { stroke: #4f4a40; stroke-width: 1.2; }
.grid { stroke: #ddd6c8; stroke-width: 1; }
.label { font-size: 13px; }
.tick { font-size: 12px; fill: #615a50; }
.legend { font-size: 13px; }
.annotation { font-size: 12px; fill: #4f4a40; }
</style>
<text x="60" y="52" class="title">Main Benchmark Summary</text>
<text x="60" y="78" class="subtitle">Average relative error and average runtime across 6 European vanilla benchmark cases</text>
<line x1="80" y1="470" x2="440" y2="470" class="axis"/>
<line x1="80" y1="180" x2="80" y2="470" class="axis"/>
<text x="80" y="160" class="label">Average Relative Error</text>
<line x1="540" y1="470" x2="900" y2="470" class="axis"/>
<line x1="540" y1="180" x2="540" y2="470" class="axis"/>
<text x="540" y="160" class="label">Average Runtime (ms)</text>
<rect x="110" y="470" width="58" height="0" fill="#2f6b66" rx="4"/>
<text x="110" y="490" class="tick">Exact</text>
<text x="110" y="462" class="annotation">0.000000</text>
<rect x="570" y="470" width="58" height="0" fill="#2f6b66" rx="4"/>
<text x="570" y="490" class="tick">Exact</text>
<text x="570" y="462" class="annotation">0.111</text>
<rect x="188" y="415" width="58" height="55" fill="#d97757" rx="4"/>
<text x="188" y="490" class="tick">Binomial</text>
<text x="188" y="407" class="annotation">0.000364</text>
<rect x="648" y="466" width="58" height="4" fill="#d97757" rx="4"/>
<text x="648" y="490" class="tick">Binomial</text>
<text x="648" y="458" class="annotation">17.438</text>
<rect x="266" y="380" width="58" height="90" fill="#f1b24a" rx="4"/>
<text x="266" y="490" class="tick">MC</text>
<text x="266" y="372" class="annotation">0.000602</text>
<rect x="726" y="435" width="58" height="35" fill="#f1b24a" rx="4"/>
<text x="726" y="490" class="tick">MC</text>
<text x="726" y="427" class="annotation">156.083</text>
<rect x="344" y="220" width="58" height="250" fill="#5b7db8" rx="4"/>
<text x="344" y="490" class="tick">FDM</text>
<text x="344" y="212" class="annotation">0.001667</text>
<rect x="804" y="220" width="58" height="250" fill="#5b7db8" rx="4"/>
<text x="804" y="490" class="tick">FDM</text>
<text x="804" y="212" class="annotation">1119.517</text>
</svg>
