<svg xmlns="http://www.w3.org/2000/svg" width="980" height="560" viewBox="0 0 980 560">
<rect width="100%" height="100%" fill="#fbfaf5"/>
<style>
text { font-family: Georgia, "Times New Roman", serif; fill: #1f1f1f; }
.title { font-size: 26px; font-weight: 700; }
.subtitle { font-size: 14px; fill: #4f4a40; }
.axis { stroke: #4f4a40; stroke-width: 1.2; }
.grid { stroke: #ddd6c8; stroke-width: 1; }
.label { font-size: 13px; }
.tick { font-size: 12px; fill: #615a50; }
.legend { font-size: 13px; }
.annotation { font-size: 12px; fill: #4f4a40; }
</style>
<text x="60" y="52" class="title">MC Variance Reduction Comparison</text>
<text x="60" y="78" class="subtitle">Average absolute error across ATM call/put cases by simulation budget</text>
<line x1="90" y1="470" x2="900" y2="470" class="axis"/>
<line x1="90" y1="150" x2="90" y2="470" class="axis"/>
<text x="90" y="130" class="label">Average Absolute Error</text>
<line x1="130" y1="170" x2="130" y2="470" class="grid"/>
<text x="118" y="492" class="tick">1k</text>
<line x1="312" y1="170" x2="312" y2="470" class="grid"/>
<text x="300" y="492" class="tick">5k</text>
<line x1="495" y1="170" x2="495" y2="470" class="grid"/>
<text x="483" y="492" class="tick">10k</text>
<line x1="678" y1="170" x2="678" y2="470" class="grid"/>
<text x="666" y="492" class="tick">30k</text>
<line x1="860" y1="170" x2="860" y2="470" class="grid"/>
<text x="848" y="492" class="tick">60k</text>
<polyline fill="none" stroke="#d97757" stroke-width="3" points="130,223 312,289 495,325 678,408 860,410"/>
<circle cx="130" cy="223" r="4" fill="#d97757"/>
<circle cx="312" cy="289" r="4" fill="#d97757"/>
<circle cx="495" cy="325" r="4" fill="#d97757"/>
<circle cx="678" cy="408" r="4" fill="#d97757"/>
<circle cx="860" cy="410" r="4" fill="#d97757"/>
<rect x="670" y="100" width="14" height="14" fill="#d97757"/>
<text x="692" y="110" class="legend">Crude</text>
<polyline fill="none" stroke="#5b7db8" stroke-width="3" points="130,170 312,364 495,468 678,422 860,450"/>
<circle cx="130" cy="170" r="4" fill="#5b7db8"/>
<circle cx="312" cy="364" r="4" fill="#5b7db8"/>
<circle cx="495" cy="468" r="4" fill="#5b7db8"/>
<circle cx="678" cy="422" r="4" fill="#5b7db8"/>
<circle cx="860" cy="450" r="4" fill="#5b7db8"/>
<rect x="670" y="122" width="14" height="14" fill="#5b7db8"/>
<text x="692" y="132" class="legend">Antithetic</text>
<polyline fill="none" stroke="#2f6b66" stroke-width="3" points="130,462 312,463 495,467 678,467 860,468"/>
<circle cx="130" cy="462" r="4" fill="#2f6b66"/>
<circle cx="312" cy="463" r="4" fill="#2f6b66"/>
<circle cx="495" cy="467" r="4" fill="#2f6b66"/>
<circle cx="678" cy="467" r="4" fill="#2f6b66"/>
<circle cx="860" cy="468" r="4" fill="#2f6b66"/>
<rect x="670" y="144" width="14" height="14" fill="#2f6b66"/>
<text x="692" y="154" class="legend">ControlVariate</text>
</svg>
